PathFileType	4	(X/Y/Z)	/Users/niels/Desktop/University/Third Semester/Perception and Action/Exam/Gymnastics Motion Tracking/Code for Gym Tracking/Analyzed Data/Webcam_Backflip/id20_2_trajectory_Sports2D/id20_2_trajectory_Sports2D_px_person00.trc
DataRate	CameraRate	NumFrames	NumMarkers	Units	OrigDataRate	OrigDataStartFrame	OrigNumFrames
29.714285714285715	29.714285714285715	10	22	m	29.714285714285715	78	105
Frame#	Time	Hip			RHip			RKnee			RAnkle			RBigToe			RSmallToe			RHeel			LHip			LKnee			LAnkle			LBigToe			LSmallToe			LHeel			Neck			Head			Nose			RShoulder			RElbow			RWrist			LShoulder			LElbow			LWrist		
		X1	Y1	Z1	X2	Y2	Z2	X3	Y3	Z3	X4	Y4	Z4	X5	Y5	Z5	X6	Y6	Z6	X7	Y7	Z7	X8	Y8	Z8	X9	Y9	Z9	X10	Y10	Z10	X11	Y11	Z11	X12	Y12	Z12	X13	Y13	Z13	X14	Y14	Z14	X15	Y15	Z15	X16	Y16	Z16	X17	Y17	Z17	X18	Y18	Z18	X19	Y19	Z19	X20	Y20	Z20	X21	Y21	Z21	X22	Y22	Z22
78	2.625	1.3502377690904876	-0.7322690322456911	0.0	1.3123558502922135	-0.736744624756731	0.0	1.2979233689860878	-0.9407904324384492	0.0	1.3451057201891505	-1.0753148863179849	0.0	1.303331912800522	-1.0835726058329058	0.0	1.2835769039489495	-1.0813751572739985	0.0	1.3610575671522078	-1.0801333728427625	0.0	1.3876751681822779	-0.7385972459477891	0.0	1.405313120643162	-0.9654375378847366	0.0	1.4446228251400592	-1.0763348578246021	0.0	1.1172029847927536	-1.1794897395858126	0.0	1.382993547181706	-1.1207868860786936	0.0	1.4617208964856547	-1.0770352558827128	0.0	1.3842003576653332	-0.4313868083142114	0.0	1.3286962090258463	-0.30727198040333004	0.0	1.318599051437166	-0.39010867715476955	0.0	1.3531596724125823	-0.47603150128556415	0.0	1.3730236397299271	-0.5957318070574354	0.0	1.3141714212582742	-0.6951670963073727	0.0	1.4543086516964985	-0.4610822023920386	0.0	1.5102138553295614	-0.5911208093395192	0.0	1.5511659732323322	-0.700077700922889	0.0
79	2.658653846153846	1.3477291098602033	-0.7316684684238515	0.0	1.312558178768992	-0.7374079728674882	0.0	1.3165245518159308	-0.9462586402721113	0.0	1.3597719567020956	-1.0730796807117806	0.0	1.311080722474717	-1.0795406237473288	0.0	1.2974113287756122	-1.081435952153864	0.0	1.3719873662468538	-1.0781453801908039	0.0	1.382293560653111	-0.7372821314719081	0.0	1.396696330704721	-0.9624065938385913	0.0	1.4375454891275246	-1.0755562061994823	0.0	1.1166506725064946	-1.1787153782616269	0.0	1.4039404568600342	-1.113964472690202	0.0	1.457150223141662	-1.078593766091381	0.0	1.3750033570253015	-0.43008408446597945	0.0	1.3220106424567977	-0.3060925095842169	0.0	1.313049310845117	-0.38704869351739735	0.0	1.3439456397883964	-0.47512663233407354	0.0	1.3664196001372566	-0.5935107674216957	0.0	1.3083668769292156	-0.6908158668682882	0.0	1.4442437501915568	-0.45831295784907994	0.0	1.5065915165765886	-0.5825471062011531	0.0	1.565272916391575	-0.6811481338209153	0.0
80	2.692307692307692	1.3465142021182408	-0.731229537421133	0.0	1.3143419603931916	-0.7380142346428626	0.0	1.3308311882953592	-0.948451130592545	0.0	1.3710355876669311	-1.0706525112157435	0.0	1.3161692760918662	-1.07531931756244	0.0	1.3073449184140389	-1.0812722241539978	0.0	1.3801074933430069	-1.0759335130740413	0.0	1.3778355726372757	-0.7363719373084507	0.0	1.3861443276033436	-0.9600314954964385	0.0	1.429303632834521	-1.075267461800289	0.0	1.1163839988175266	-1.1784286898995406	0.0	1.417631044278227	-1.1094453558888488	0.0	1.4515365380940428	-1.080766802452674	0.0	1.3659429579913371	-0.4284854115090155	0.0	1.316034769377767	-0.3047356441763626	0.0	1.308193956925341	-0.38353911656239886	0.0	1.3353388245873423	-0.47425665082153373	0.0	1.3594772000687934	-0.5924001059753553	0.0	1.3036597598313548	-0.6889435222369574	0.0	1.4340170910569385	-0.455638211632023	0.0	1.5031567301824174	-0.5752450393466692	0.0	1.575252271189862	-0.6667053424943428	0.0
81	2.7259615384615383	1.3460002818794583	-0.7309956517551992	0.0	1.3166943077756104	-0.7385542512113444	0.0	1.339631634206269	-0.9485247326453362	0.0	1.3781672864048917	-1.0683928210213915	0.0	1.3186371363816252	-1.0720416791846974	0.0	1.3128309041926447	-1.0808448881082418	0.0	1.3854537117625745	-1.073787955030968	0.0	1.3743489699208638	-0.7359068317362638	0.0	1.3743196121082346	-0.9585773799397825	0.0	1.4204803382420406	-1.07516765311996	0.0	1.1163109476635549	-1.1784203457612057	0.0	1.4247850004056994	-1.106941320920684	0.0	1.4447669141637718	-1.082593578672254	0.0	1.3571156659553592	-0.42675150353615465	0.0	1.310435827145086	-0.303346243772414	0.0	1.3037441563115661	-0.37988283952432833	0.0	1.3275923178832556	-0.4734503877633764	0.0	1.3529757469968293	-0.592025214308125	0.0	1.3009731219390985	-0.6888026079021929	0.0	1.424050002335663	-0.45327249497161337	0.0	1.4994903065802503	-0.5695577685971013	0.0	1.5812758040957982	-0.6572516832400073	0.0
82	2.7596153846153846	1.3455374524569568	-0.7309710834757018	0.0	1.318699721950523	-0.7389973573159507	0.0	1.343331231834049	-0.9474762207410439	0.0	1.3812702566561437	-1.0664729679315024	0.0	1.3191352970773595	-1.070363880189546	0.0	1.314781868519293	-1.0801722467166766	0.0	1.3885729069224624	-1.071865977236024	0.0	1.3715785593261638	-0.7357372401542601	0.0	1.3619314741016657	-0.9577396657928997	0.0	1.411375338794503	-1.0748931976322609	0.0	1.1163415095509748	-1.1785288127193494	0.0	1.4272941325782782	-1.105878211435709	0.0	1.436854694127235	-1.0834101280555624	0.0	1.3488263271637722	-0.4251852051764043	0.0	1.3049181596306103	-0.30214134857153435	0.0	1.2994339329830848	-0.3765381427491332	0.0	1.3208610021423342	-0.47277152183523913	0.0	1.347470010106584	-0.5918955120902258	0.0	1.3000119580353469	-0.6892506564913855	0.0	1.415013902612972	-0.45143201802994426	0.0	1.4951738980312448	-0.5656358809527139	0.0	1.5833981069405347	-0.6518810175044556	0.0
83	2.793269230769231	1.3445592518409761	-0.7311535694324596	0.0	1.3197007745217602	-0.739356364248703	0.0	1.3433324604750576	-0.9459068012422386	0.0	1.3812628499614517	-1.0650159113014204	0.0	1.3184072454879203	-1.0702753306742394	0.0	1.314598957958659	-1.0792841905159174	0.0	1.390309772525848	-1.0701725280052619	0.0	1.3690474416643743	-0.7356836372450584	0.0	1.3497867011719582	-0.9571213149949407	0.0	1.4020790914189254	-1.0742615151604427	0.0	1.1164085023893673	-1.1786560691954402	0.0	1.4272710903753894	-1.1056111740183088	0.0	1.428061195517647	-1.0829680760728244	0.0	1.3415211113684884	-0.42410345634218455	0.0	1.2994713796442947	-0.3013604861815898	0.0	1.2951721568076096	-0.3739820363092373	0.0	1.3151628945207419	-0.4723130979516058	0.0	1.3429692887765723	-0.5918086300198588	0.0	1.2996312780656318	-0.6897502137234907	0.0	1.4075270810802407	-0.45027827198043463	0.0	1.4900383314416916	-0.5635846802144112	0.0	1.581712057649872	-0.6497787881173724	0.0
84	2.8269230769230766	1.3426259735984079	-0.7315857659012941	0.0	1.3192444801209633	-0.7397505499810623	0.0	1.341281415785713	-0.9444216633390635	0.0	1.3794281897371306	-1.0641963002975376	0.0	1.3171039622377383	-1.07135512195676	0.0	1.3134883213395134	-1.078189113372689	0.0	1.391445523112869	-1.068639799569627	0.0	1.3661680000317358	-0.7357466160149574	0.0	1.3387361836003195	-0.9566649678179595	0.0	1.3927999210049182	-1.0734577380326353	0.0	1.116468105726489	-1.1787571192200281	0.0	1.4264451864046463	-1.1056204158289475	0.0	1.4190322811975775	-1.0815308711645295	0.0	1.3356338202239002	-0.4236856470108778	0.0	1.2944350098626058	-0.3012045530685901	0.0	1.2910813894900128	-0.3725370090929416	0.0	1.3104799344252527	-0.47211516538276393	0.0	1.3389956904589446	-0.5920316621496746	0.0	1.2985925869270813	-0.6908234035432169	0.0	1.401897310194144	-0.44988762425161366	0.0	1.4842359590058505	-0.563518009695208	0.0	1.57617196313327	-0.6509305785551995	0.0
85	2.860576923076923	1.339510408561081	-0.7323827068330346	0.0	1.3170936029288278	-0.7403958140853406	0.0	1.338313091560723	-0.9438673966969291	0.0	1.3767418272116112	-1.0641603725355708	0.0	1.3156313489659883	-1.073115928199304	0.0	1.3121710823092505	-1.0768807150593862	0.0	1.392408828046416	-1.0672331458440352	0.0	1.3624325506986223	-0.7361572289026627	0.0	1.3293405066370885	-0.9566898225691172	0.0	1.3839165587713944	-1.0729703520520202	0.0	1.1164919097894248	-1.1788215167852218	0.0	1.4260139657042308	-1.1056041368688145	0.0	1.4106108838338216	-1.0798160219143267	0.0	1.3314459978002169	-0.42390907308599185	0.0	1.2903575165890424	-0.3017518510912302	0.0	1.2873961182132878	-0.3722738871462064	0.0	1.3068782785335102	-0.4721443561312414	0.0	1.3349963388211594	-0.5931141604298503	0.0	1.2960476958776919	-0.6937242325325763	0.0	1.398099736232844	-0.450257016921815	0.0	1.4781232930066794	-0.5656138909969186	0.0	1.5663519040470464	-0.6561596527827414	0.0
86	2.894230769230769	1.3352846639163123	-0.7336935205822172	0.0	1.313312763807819	-0.7414932190551261	0.0	1.3345568497586717	-0.9450091382075928	0.0	1.3734590711832424	-1.0649183640405113	0.0	1.3140320683658535	-1.0752039540765805	0.0	1.3107997000915919	-1.075382610668633	0.0	1.393123848840969	-1.066025730535063	0.0	1.3576861736164554	-0.7372083080191102	0.0	1.3216321361825543	-0.9575458641751047	0.0	1.375729979267665	-1.0732641806146317	0.0	1.116458908823156	-1.1788564653888542	0.0	1.4266832635996585	-1.1055035134129596	0.0	1.4033593610490345	-1.0786655857182195	0.0	1.3290453015610095	-0.42465529157760384	0.0	1.2877447813640412	-0.30290076412286815	0.0	1.284326433321183	-0.37307326747799474	0.0	1.304486339099087	-0.4724429131958112	0.0	1.3304747060617856	-0.5955597423610824	0.0	1.2915101756028875	-0.699621124363264	0.0	1.3959312385300955	-0.45137419025122827	0.0	1.4718863411105527	-0.5701069792502698	0.0	1.5513261802311513	-0.6665957314285892	0.0
87	2.9278846153846154	1.3303197874264345	-0.7356807636837575	0.0	1.3082919642962105	-0.7431811264776556	0.0	1.3293355814857388	-0.9482384133811205	0.0	1.3691698165643653	-1.066394132258744	0.0	1.311929279150638	-1.0774670007844935	0.0	1.3089609135363207	-1.0738279242495852	0.0	1.3929331782926924	-1.0652414332894329	0.0	1.3522696284207016	-0.7391492296583507	0.0	1.3152633023399523	-0.9594579101580161	0.0	1.3682683133366842	-1.0744979883011148	0.0	1.1163531552376331	-1.1788748253898493	0.0	1.4286810155563743	-1.1055107562356696	0.0	1.3972487640241789	-1.0786912453147328	0.0	1.3283772920447554	-0.42587109353994895	0.0	1.286933847472758	-0.3044753167024346	0.0	1.2819827384853761	-0.37480103740727005	0.0	1.3033805245352632	-0.47322175093423097	0.0	1.324738108580064	-0.5996653119324353	0.0	1.2845454830986431	-0.7087181326518563	0.0	1.3951076191451113	-0.45335521481212454	0.0	1.4651060766896498	-0.5771677880939563	0.0	1.5296776187803351	-0.6825650168402204	0.0
